<?xml version="1.0" encoding="UTF-8"?>
<svg xmlns="http://www.w3.org/2000/svg" xmlns:xlink="http://www.w3.org/1999/xlink" width="100pt" height="100pt" viewBox="0 0 100 100" version="1.1">
<g id="surface2689913">
<path style=" stroke:none;fill-rule:evenodd;fill:rgb(80%,80%,80%);fill-opacity:1;" d="M 62 20 L 34 22 L 10 36 L 16 36 L 16 54.429688 C 14.835938 55.390625 14 57.953125 14 61 C 14 64.867188 15.34375 68 17 68 C 18.65625 68 20 65.867188 20 62 C 20 58.953125 19.164062 55.78125 18 54.554688 L 18 36 L 40 36 Z M 51 30 L 41 38 L 25 38 C 24.804688 38.96875 24.75 38.9375 24.75 39.960938 C 24.75 41 24.859375 42.015625 25.0625 43 C 25.617188 42.976562 37 42 43.039062 47 C 44.210938 43.453125 47.460938 38.898438 52.070312 34.757812 C 52.492188 34.375 52.570312 34.359375 53 34 C 53 32 52.078125 31.15625 51 30 Z M 68 32 C 63.390625 32 59.195312 33.765625 56 36.640625 C 55.390625 36.09375 54.742188 35.609375 54.0625 35.15625 C 53.820312 35.367188 53.5625 35.570312 53.320312 35.789062 C 50.070312 38.710938 47.515625 41.835938 45.875 44.664062 C 48.296875 45.765625 50 48.179688 50 51 L 50 74 L 62 74 L 62 51 C 62 47.148438 65.148438 44 69 44 C 72.851562 44 76 47.148438 76 51 L 76 74 L 88 74 L 88 50 C 88 40.101562 79.898438 32 70 32 Z M 25.0625 44.03125 C 24.390625 45.90625 24 47.90625 24 50 L 24 74 L 36 74 L 36 51 C 36 49.265625 36.664062 47.703125 37.71875 46.492188 C 34.640625 45.070312 30.132812 44.148438 25.0625 44.03125 Z M 25.0625 44.03125 "/>
</g>
</svg>
